HIERARCHY
ROOT root
{
	OFFSET	0	13.1	24.9
	CHANNELS 6  Xposition Yposition Zposition Xrotation Yrotation Zrotation
	JOINT spine_1
	{
		OFFSET	0	9.99999	0
		CHANNELS 3  Xrotation Yrotation Zrotation
		JOINT spine_2
		{
			OFFSET	0	112	-10
			CHANNELS 3  Xrotation Yrotation Zrotation
			JOINT spine_3
			{
				OFFSET	0	206.5	19.3
				CHANNELS 3  Xrotation Yrotation Zrotation
				JOINT spine_4
				{
					OFFSET	0	110.4	14.6
					CHANNELS 3  Xrotation Yrotation Zrotation
					JOINT neck_1
					{
						OFFSET	0	71.8	-50.3
						CHANNELS 3  Xrotation Yrotation Zrotation
						JOINT neck_2
						{
							OFFSET	0	86.2	-25.8
							CHANNELS 3  Xrotation Yrotation Zrotation
							JOINT head_ee
							{
								OFFSET	0	179.8	-8.7
								CHANNELS 3  Xrotation Yrotation Zrotation
								End Site
								{
									OFFSET	1	0	0
								}
							}
						}
					}
					JOINT left_clavicle
					{
						OFFSET	-43.2	22.4	-70.8
						CHANNELS 3  Xrotation Yrotation Zrotation
						JOINT left_shoulder
						{
							OFFSET	-93.9	-5.79999	48.7
							CHANNELS 3  Xrotation Yrotation Zrotation
							JOINT left_elbow
							{
								OFFSET	-291.4	-30.8	15.2
								CHANNELS 3  Xrotation Yrotation Zrotation
								JOINT left_lowarm_twist
								{
									OFFSET	-110.7	-3.89999	13.6
									CHANNELS 3  Xrotation Yrotation Zrotation
									JOINT left_hand
									{
										OFFSET	-110.7	-3.89999	13.6
										CHANNELS 3  Xrotation Yrotation Zrotation
										JOINT left_ee
										{
											OFFSET	-80.8	-5.10001	12.1
											CHANNELS 3  Xrotation Yrotation Zrotation
											End Site
											{
												OFFSET	1	0	0
											}
										}
									}
								}
							}
						}
					}
					JOINT right_clavicle
					{
						OFFSET	43.2	22.4	-70.8
						CHANNELS 3  Xrotation Yrotation Zrotation
						JOINT right_shoulder
						{
							OFFSET	93.9	-5.79999	48.7
							CHANNELS 3  Xrotation Yrotation Zrotation
							JOINT right_elbow
							{
								OFFSET	291.4	-30.8	15.2
								CHANNELS 3  Xrotation Yrotation Zrotation
								JOINT right_lowarm_twist
								{
									OFFSET	110.7	-3.89999	13.6
									CHANNELS 3  Xrotation Yrotation Zrotation
									JOINT right_hand
									{
										OFFSET	110.7	-3.89999	13.6
										CHANNELS 3  Xrotation Yrotation Zrotation
										JOINT right_ee
										{
											OFFSET	80.8	-5.10001	12.1
											CHANNELS 3  Xrotation Yrotation Zrotation
											End Site
											{
												OFFSET	1	0	0
											}
										}
									}
								}
							}
						}
					}
				}
			}
		}
	}
	JOINT left_hip
	{
		OFFSET	-82.8	-127.5	0.300001
		CHANNELS 3  Xrotation Yrotation Zrotation
		JOINT left_knee
		{
			OFFSET	-28.2	-396.7	2.2
			CHANNELS 3  Xrotation Yrotation Zrotation
			JOINT left_ankle
			{
				OFFSET	-11.7	-411.3	35.4
				CHANNELS 3  Xrotation Yrotation Zrotation
				JOINT left_toes
				{
					OFFSET	0	-60	-88.6
					CHANNELS 3  Xrotation Yrotation Zrotation
					JOINT left_foot_ee
					{
						OFFSET	-22.5	-16.5	-42.2
						CHANNELS 3  Xrotation Yrotation Zrotation
						End Site
						{
							OFFSET	1	0	0
						}
					}
				}
			}
		}
	}
	JOINT right_hip
	{
		OFFSET	82.8	-127.5	0.300001
		CHANNELS 3  Xrotation Yrotation Zrotation
		JOINT right_knee
		{
			OFFSET	28.2	-396.7	2.2
			CHANNELS 3  Xrotation Yrotation Zrotation
			JOINT right_ankle
			{
				OFFSET	11.7	-411.3	35.4
				CHANNELS 3  Xrotation Yrotation Zrotation
				JOINT right_toes
				{
					OFFSET	0	-60	-88.6
					CHANNELS 3  Xrotation Yrotation Zrotation
					JOINT right_foot_ee
					{
						OFFSET	22.5	-16.5	-42.2
						CHANNELS 3  Xrotation Yrotation Zrotation
						End Site
						{
							OFFSET	1	0	0
						}
					}
				}
			}
		}
	}
}
MOTION
Frames: 14
Frame Time: 0.02
3177.02 653.055 -1669.29 -23.710994815 55.2459890738 16.6252976128 4.68757 0.422496 3.38389 4.69392 0.206442 3.40389 4.70128 -0.235703 3.40199 4.68526 0.304218 3.39655 -6.12985 15.7779 -2.04268 -6.00531 30.712 0.962619 -0.0 0.0 -0.0 -1.93107 20.9396 -0.347469 -33.495 -16.2793 68.9458 0.476521 -13.282 0.0554812 -24.3338 -1.45914 2.72434 -0.318567 10.0724 2.1294 -0.0 0.0 -0.0 13.2163 26.1341 -26.1616 18.6496 27.9585 -68.0152 3.20589 57.7893 -1.76968 0.516743 -0.0179204 0.0635626 3.53712 16.2952 -16.9565 0.0 0.0 0.0 39.7449 3.99248 -8.18729 0.764478 -0.0322341 -0.112884 -17.2278 15.1219 2.60274 -26.354 0.0 0.0 -0.0 0.0 -0.0 10.4022 -3.27109 16.1408 -27.1339 -0.143129 -4.12279 37.8765 25.9803 5.45141 -6.95554 0.0 0.0 0.0 0.0 0.0 
3105.03239004 664.561 -1667.01447547 -19.5187406201 50.5986971958 12.4567429212 4.44054 0.659337 3.33501 4.44662 0.445909 3.37015 4.46854 -0.00728325 3.39948 4.45281 0.529386 3.35807 -5.29202 18.3049 1.67469 -5.09204 32.5662 4.95637 -0.0 0.0 -0.0 -0.853471 18.9899 0.942476 -30.079 -18.204 67.3968 0.589407 -16.2766 0.084288 -26.788 -1.66777 2.95971 -0.358866 8.9001 1.38063 -0.0 0.0 -0.0 13.2403 24.9373 -26.3552 13.5017 28.8423 -69.6293 2.85193 54.6974 -1.47529 -3.79988 0.149286 -0.462111 3.6303 15.8569 -17.8269 0.0 0.0 0.0 34.6221 4.05299 -6.97663 -2.28422 0.087288 0.33966 -11.8941 15.9256 1.79159 -26.9463 0.0 0.0 -0.0 0.0 -0.0 7.87812 6.58115 15.9759 -30.1213 -0.0394007 -4.56948 37.0515 1.63555 4.62716 -9.9658 0.0 0.0 0.0 0.0 0.0 
3071.95801386 666.584 -1668.17345683 -18.890396439 50.5116259758 11.5064303446 4.37467 0.567794 3.23788 4.38043 0.360722 3.26741 4.39703 -0.0822538 3.28621 4.38223 0.437493 3.25803 -4.74931 19.1082 2.75543 -4.47056 33.1428 6.03211 -0.0 0.0 -0.0 -0.548485 18.5497 1.34243 -29.281 -18.7107 67.0559 0.619354 -17.0566 0.092877 -27.5205 -1.73197 3.02821 -0.263146 8.84559 1.97493 -0.0 0.0 -0.0 13.4914 24.8367 -26.9507 11.8004 29.1907 -70.2009 2.70262 53.2331 -1.35454 -4.45001 0.177888 -0.540153 3.70211 16.9944 -17.7518 0.0 0.0 0.0 33.2968 4.17157 -5.95256 -3.12736 0.116071 0.465856 -15.0239 15.758 2.26913 -27.8714 0.0 0.0 -0.0 0.0 -0.0 6.17292 7.77061 17.2312 -31.5915 0.0201744 -4.78721 36.5638 -3.42678 4.5504 -10.8137 0.0 0.0 0.0 0.0 0.0 
3071.96810068 666.584 -1667.45532052 -19.0459150395 50.882013839 11.7074082567 4.37467 0.567794 3.23788 4.38043 0.360722 3.26741 4.39703 -0.0822538 3.28621 4.38223 0.437493 3.25803 -4.74931 19.1082 2.75543 -4.47056 33.1428 6.03211 -0.0 0.0 -0.0 -0.548485 18.5497 1.34243 -29.281 -18.7107 67.0559 0.619354 -17.0566 0.092877 -27.5205 -1.73197 3.02821 -0.263146 8.84559 1.97493 -0.0 0.0 -0.0 13.4914 24.8367 -26.9507 11.8004 29.1907 -70.2009 2.70262 53.2331 -1.35454 -4.45001 0.177888 -0.540153 3.70211 16.9944 -17.7518 0.0 0.0 0.0 33.2968 4.17157 -5.95256 -3.12736 0.116071 0.465856 -15.0239 15.758 2.26913 -27.8714 0.0 0.0 -0.0 0.0 -0.0 6.17292 7.77061 17.2312 -31.5915 0.0201744 -4.78721 36.5638 -3.42678 4.5504 -10.8137 0.0 0.0 0.0 0.0 0.0 
3026.40855796 684.602 -1675.84451194 -17.4995691923 50.790281519 10.038786412 4.17691 0.583499 3.25492 4.18273 0.375313 3.28541 4.20057 -0.0815435 3.30575 4.1856 0.441275 3.27721 -5.29096 20.8883 4.25055 -5.02935 35.4844 8.00975 -0.0 0.0 -0.0 -0.104718 17.3145 1.86803 -27.3328 -19.9873 65.4231 0.639051 -17.5662 0.0987382 -29.3014 -1.89172 3.19134 -0.334473 8.14926 1.22313 -0.0 0.0 -0.0 13.7173 26.7406 -27.2501 6.27839 29.5695 -70.8894 2.02612 45.1 -0.841389 -4.94276 0.200157 -0.599086 3.88799 19.5023 -17.7351 0.0 0.0 0.0 29.0886 4.18175 -3.23683 -4.38802 0.155633 0.655281 -6.27378 15.3938 0.93654 -27.7879 0.0 0.0 -0.0 0.0 -0.0 6.61736 11.5036 15.0084 -37.7669 0.330846 -5.68311 34.2456 -22.857 4.52548 -10.6417 0.0 0.0 0.0 0.0 0.0 
2987.16428757 690.841 -1681.67288164 -15.0836735506 50.520910027 7.61983273342 4.1774 0.40438 3.26595 4.18331 0.195854 3.28504 4.19081 -0.260089 3.28058 4.17588 0.260995 3.28051 -7.18069 21.5131 5.81498 -7.15571 36.0307 10.2916 -0.0 0.0 -0.0 0.660967 13.9938 2.72414 -24.324 -21.0423 63.1154 0.69096 -18.8952 0.114979 -30.5948 -2.01089 3.30669 -0.450673 8.52592 0.630841 -0.0 0.0 -0.0 13.2171 26.3974 -26.1317 0.0721915 30.1736 -69.9921 1.61541 38.6648 -0.566767 -4.49225 0.179777 -0.545211 4.31294 22.1129 -19.2358 0.0 0.0 0.0 24.6227 3.92522 -0.229084 -5.32462 0.18232 0.79654 1.92805 12.9506 -0.281724 -26.7739 0.0 0.0 -0.0 0.0 -0.0 7.27007 15.3335 13.5249 -45.6234 0.862713 -6.76686 31.7991 -31.8993 4.53154 -9.67995 0.0 0.0 0.0 0.0 0.0 
2987.21582125 690.841 -1682.43918357 -15.0110652881 50.2975503474 7.52561184336 4.1774 0.40438 3.26595 4.18331 0.195854 3.28504 4.19081 -0.260089 3.28058 4.17588 0.260995 3.28051 -7.18069 21.5131 5.81498 -7.15571 36.0307 10.2916 -0.0 0.0 -0.0 0.660967 13.9938 2.72414 -24.324 -21.0423 63.1154 0.69096 -18.8952 0.114979 -30.5948 -2.01089 3.30669 -0.450673 8.52592 0.630841 -0.0 0.0 -0.0 13.2171 26.3974 -26.1317 0.0721915 30.1736 -69.9921 1.61541 38.6648 -0.566767 -4.49225 0.179777 -0.545211 4.31294 22.1129 -19.2358 0.0 0.0 0.0 24.6227 3.92522 -0.229084 -5.32462 0.18232 0.79654 1.92805 12.9506 -0.281724 -26.7739 0.0 0.0 -0.0 0.0 -0.0 7.27007 15.3335 13.5249 -45.6234 0.862713 -6.76686 31.7991 -31.8993 4.53154 -9.67995 0.0 0.0 0.0 0.0 0.0 
2987.28739603 690.841 -1683.43447912 -14.9180879178 50.0072378929 7.40450876597 4.1774 0.40438 3.26595 4.18331 0.195854 3.28504 4.19081 -0.260089 3.28058 4.17588 0.260995 3.28051 -7.18069 21.5131 5.81498 -7.15571 36.0307 10.2916 -0.0 0.0 -0.0 0.660967 13.9938 2.72414 -24.324 -21.0423 63.1154 0.69096 -18.8952 0.114979 -30.5948 -2.01089 3.30669 -0.450673 8.52592 0.630841 -0.0 0.0 -0.0 13.2171 26.3974 -26.1317 0.0721915 30.1736 -69.9921 1.61541 38.6648 -0.566767 -4.49225 0.179777 -0.545211 4.31294 22.1129 -19.2358 0.0 0.0 0.0 24.6227 3.92522 -0.229084 -5.32462 0.18232 0.79654 1.92805 12.9506 -0.281724 -26.7739 0.0 0.0 -0.0 0.0 -0.0 7.27007 15.3335 13.5249 -45.6234 0.862713 -6.76686 31.7991 -31.8993 4.53154 -9.67995 0.0 0.0 0.0 0.0 0.0 
2965.01476317 697.303 -1690.103067 -12.9859655089 50.3440101216 5.07412438775 4.01759 0.187449 3.2798 4.02358 -0.0215185 3.28507 4.01881 -0.485494 3.24911 4.00408 0.0334479 3.28497 -9.91094 20.5729 6.41116 -10.2349 34.5445 11.535 -0.0 0.0 -0.0 1.92502 11.9379 4.64061 -22.1198 -21.172 59.5722 0.735747 -20.0252 0.1299 -30.8505 -2.03475 3.32916 -0.616788 9.13653 -0.179882 -0.0 0.0 -0.0 13.0301 24.1123 -25.9555 -2.96701 30.1284 -69.7769 1.35438 33.8567 -0.412241 -4.96839 0.201329 -0.602146 4.103 20.9128 -18.4578 0.0 0.0 0.0 20.4813 3.44986 2.74608 -4.21433 0.150431 0.629132 10.8549 10.8063 -1.54038 -25.3437 0.0 0.0 -0.0 0.0 -0.0 8.65947 19.091 12.0409 -51.4274 1.34874 -7.51624 25.2447 -28.7764 3.62516 -10.4266 0.0 0.0 0.0 0.0 0.0 
2943.82220771 696.052 -1697.87793748 -11.5195633552 48.6973428582 3.06057687682 4.02092 0.199725 3.39907 4.02735 -0.0168435 3.40488 4.02254 -0.497607 3.36841 4.00671 0.0402952 3.40469 -11.0775 20.9204 7.3702 -11.5373 34.8675 12.9319 -0.0 0.0 -0.0 2.48282 10.1501 5.47405 -20.6482 -21.9068 57.7201 0.781404 -21.1606 0.14596 -31.1285 -2.06082 3.3535 -0.572852 9.55176 0.279811 -0.0 0.0 -0.0 12.9595 25.0027 -25.6969 -5.93608 29.8842 -69.8969 1.16009 29.884 -0.309597 -5.81563 0.240847 -0.703011 4.33449 22.4934 -19.1684 0.0 0.0 0.0 18.7572 3.1945 4.2356 -4.73667 0.165837 0.707815 14.1397 10.3601 -1.98166 -24.3516 0.0 0.0 -0.0 0.0 -0.0 7.0393 24.1041 12.2546 -54.4484 1.63126 -7.88611 25.1189 -27.8879 3.58708 -9.881 0.0 0.0 0.0 0.0 0.0 
2943.45312047 696.052 -1694.68671807 -11.7014672169 49.4647517122 3.30130053712 4.02092 0.199725 3.39907 4.02735 -0.0168435 3.40488 4.02254 -0.497607 3.36841 4.00671 0.0402952 3.40469 -11.0775 20.9204 7.3702 -11.5373 34.8675 12.9319 -0.0 0.0 -0.0 2.48282 10.1501 5.47405 -20.6482 -21.9068 57.7201 0.781404 -21.1606 0.14596 -31.1285 -2.06082 3.3535 -0.572852 9.55176 0.279811 -0.0 0.0 -0.0 12.9595 25.0027 -25.6969 -5.93608 29.8842 -69.8969 1.16009 29.884 -0.309597 -5.81563 0.240847 -0.703011 4.33449 22.4934 -19.1684 0.0 0.0 0.0 18.7572 3.1945 4.2356 -4.73667 0.165837 0.707815 14.1397 10.3601 -1.98166 -24.3516 0.0 0.0 -0.0 0.0 -0.0 7.0393 24.1041 12.2546 -54.4484 1.63126 -7.88611 25.1189 -27.8879 3.58708 -9.881 0.0 0.0 0.0 0.0 0.0 
2942.95672694 696.052 -1689.60907244 -12.0068738054 50.6824384682 3.69952847107 4.02092 0.199725 3.39907 4.02735 -0.0168435 3.40488 4.02254 -0.497607 3.36841 4.00671 0.0402952 3.40469 -11.0775 20.9204 7.3702 -11.5373 34.8675 12.9319 -0.0 0.0 -0.0 2.48282 10.1501 5.47405 -20.6482 -21.9068 57.7201 0.781404 -21.1606 0.14596 -31.1285 -2.06082 3.3535 -0.572852 9.55176 0.279811 -0.0 0.0 -0.0 12.9595 25.0027 -25.6969 -5.93608 29.8842 -69.8969 1.16009 29.884 -0.309597 -5.81563 0.240847 -0.703011 4.33449 22.4934 -19.1684 0.0 0.0 0.0 18.7572 3.1945 4.2356 -4.73667 0.165837 0.707815 14.1397 10.3601 -1.98166 -24.3516 0.0 0.0 -0.0 0.0 -0.0 7.0393 24.1041 12.2546 -54.4484 1.63126 -7.88611 25.1189 -27.8879 3.58708 -9.881 0.0 0.0 0.0 0.0 0.0 
2925.27776393 698.416 -1687.66364358 -9.75501475664 51.4077825935 1.05710878995 3.84216 0.162184 3.4061 3.84861 -0.0547552 3.40951 3.84184 -0.546489 3.36593 3.82603 -0.00836682 3.40994 -11.8747 20.7136 7.46536 -12.4331 34.608 13.2307 -0.0 0.0 -0.0 3.05259 9.19983 6.4123 -19.8045 -22.0999 56.0932 0.813608 -21.9512 0.157792 -31.3673 -2.0833 3.37429 -0.70746 9.92489 -0.423444 -0.0 0.0 -0.0 12.7493 24.4906 -25.2661 -7.65517 29.6432 -70.1457 1.01445 26.6804 -0.240564 -6.30391 0.2643 -0.760877 4.32298 22.4447 -19.117 0.0 0.0 0.0 15.8457 2.73669 6.51516 -5.55104 0.188424 0.830752 18.9028 9.63446 -2.59608 -23.3077 0.0 0.0 -0.0 0.0 -0.0 5.94681 28.6628 12.3809 -57.2775 1.91329 -8.21872 23.14 -26.5488 3.30514 -10.1618 0.0 0.0 0.0 0.0 0.0 
2905.69712302 701.101 -1682.52537039 -8.25294648471 50.760265315 -0.668218596296 3.60741 0.497769 3.53899 3.61434 0.271712 3.56345 3.62795 -0.258434 3.56443 3.61036 0.307378 3.56055 -12.5396 20.2851 7.43703 -13.16 33.9629 13.2889 -0.0 0.0 -0.0 3.30874 8.36115 6.82391 -18.6581 -22.0874 54.1324 0.884787 -23.6675 0.185389 -31.5228 -2.09799 3.38778 -0.962265 10.1715 -1.94729 -0.0 0.0 -0.0 12.4163 24.093 -24.5396 -10.0479 28.9575 -69.8312 0.862614 23.1375 -0.176582 -6.65938 0.281684 -0.802877 4.2874 22.3921 -18.9026 0.0 0.0 0.0 13.4485 2.35327 7.86873 -6.02872 0.200858 0.903003 23.31 9.69941 -3.1364 -22.1193 0.0 0.0 -0.0 0.0 -0.0 8.3519 30.0785 11.7808 -58.6646 2.05753 -8.37668 21.7236 -24.6654 3.08764 -10.428 0.0 0.0 0.0 0.0 0.0 
